<svg xmlns="http://www.w3.org/2000/svg" viewBox="0 0 698.77 418.48">
  <defs>
    <style>
      .cls-1 {
        fill: #863a78;
      }

      .cls-1, .cls-2 {
        mix-blend-mode: multiply;
      }

      .cls-1, .cls-3, .cls-4, .cls-5, .cls-6, .cls-7, .cls-8, .cls-9, .cls-10, .cls-11, .cls-12, .cls-13, .cls-14, .cls-15 {
        stroke-width: 0px;
      }

      .cls-16 {
        isolation: isolate;
      }

      .cls-3 {
        fill: #795029;
      }

      .cls-4 {
        fill: #4fb3e5;
      }

      .cls-5 {
        fill: #873b79;
      }

      .cls-6 {
        fill: #461326;
      }

      .cls-7 {
        fill: #2db569;
      }

      .cls-8 {
        fill: #076164;
      }

      .cls-9 {
        fill: #e282b5;
      }

      .cls-10 {
        fill: #ab2d62;
      }

      .cls-11 {
        fill: #93642a;
      }

      .cls-12 {
        fill: #752647;
      }

      .cls-13 {
        fill: #fff;
      }

      .cls-14 {
        fill: #e6e1a0;
      }

      .cls-15 {
        fill: #015691;
      }
    </style>
  </defs>
  <g class="cls-16">
    <g id="Layer_1" data-name="Layer 1">
      <g>
        <g>
          <path class="cls-8" d="M641.27,287.26c0-44-55.4-79.68-123.74-79.68s-123.74,35.67-123.74,79.68,55.4,79.68,123.74,79.68c27.84,0,53.54-5.92,74.22-15.92,0,0,13.31,19.71-13.25,46.12,0,0,38.08-28.49,43.19-66.84h0c12.4-12.41,19.59-27.19,19.59-43.04Z"/>
          <path class="cls-15" d="M145.15,304.35c0-34.19,36.55-61.9,81.65-61.9s81.65,27.71,81.65,61.9-36.55,61.9-81.65,61.9c-18.37,0-35.33-4.6-48.97-12.37,0,0-8.78,15.31,8.74,35.83,0,0-25.13-22.14-28.49-51.93h0c-8.18-9.64-12.93-21.12-12.93-33.44Z"/>
          <path class="cls-9" d="M217.5,218.54c0-28.39,35.74-51.41,79.83-51.41s79.83,23.02,79.83,51.41-35.74,51.41-79.83,51.41c-17.96,0-34.54-3.82-47.88-10.27,0,0-8.59,12.72,8.55,29.75,0,0-24.57-18.38-27.86-43.12h0c-8-8.01-12.64-17.54-12.64-27.77Z"/>
          <path class="cls-7" d="M673.55,184.31c9.8-42.9-17.03-85.62-59.93-95.42-42.9-9.8-85.62,17.03-95.42,59.93-9.8,42.9,17.03,85.62,59.93,95.42,10.92,2.5,21.83,2.61,32.19.7-.06,8.04-3.75,22.2-25.34,34.74,0,0,38.67-15.73,55.6-47.17,16.12-10.92,28.3-27.73,32.98-48.2Z"/>
          <path class="cls-6" d="M135.86,89.58c0-39.89,32.34-72.23,72.23-72.23s72.23,32.34,72.23,72.23-32.34,72.23-72.23,72.23c-10.16,0-19.82-2.1-28.59-5.88-1.57,7.12-1.17,20.37,15.38,35.82,0,0-31-21.71-39.61-52.91-12.04-12.9-19.41-30.22-19.41-49.26Z"/>
          <path class="cls-4" d="M82.11,112.31l179.28,19.21c3.57.38,6.46,4.71,6.46,9.63v87.86c0,4.92-2.89,9.25-6.46,9.63l-135.93,14.57-4.16,7.45s-11.74,18.62,13.59,42.27c0,0-26.85-18.81-37.95-46.66l-14.84,1.59c-6.71.72-12.3-4.32-12.3-11.21v-123.13c0-6.89,5.59-11.93,12.3-11.21Z"/>
          <path class="cls-14" d="M526.76,135.54l-135.57,14.53c-2.7.29-4.89,3.56-4.89,7.28v66.43c0,3.72,2.18,6.99,4.89,7.28l102.78,11.02,3.14,5.63s8.88,14.08-10.28,31.96c0,0,20.3-14.22,28.7-35.28l11.22,1.2c5.08.54,9.3-3.27,9.3-8.47v-93.11c0-5.21-4.23-9.02-9.3-8.47Z"/>
          <path class="cls-11" d="M449.46,183.44l-111.03,11.9c-2.21.24-4,2.92-4,5.96v54.41c0,3.04,1.79,5.73,4,5.96l84.18,9.02,2.57,4.61s7.27,11.53-8.42,26.18c0,0,16.63-11.65,23.5-28.9l9.19.99c4.16.45,7.62-2.67,7.62-6.94v-76.25c0-4.27-3.46-7.39-7.62-6.94Z"/>
          <path class="cls-3" d="M520.34,31.85h-137.62c-5.31,0-9.66,4.35-9.66,9.66v90.54c0,5.31,4.35,9.66,9.66,9.66h96.49l2.92,5.23s12.68,20.12-14.69,45.68c0,0,29.32-20.54,41.2-50.91h11.7c5.31,0,9.66-4.35,9.66-9.66V41.51c0-5.31-4.35-9.66-9.66-9.66Z"/>
          <path class="cls-10" d="M234.74,60.68h137.62c5.31,0,9.66,4.35,9.66,9.66v90.54c0,5.31-4.35,9.66-9.66,9.66h-96.49l-2.92,5.23s-12.68,20.12,14.69,45.68c0,0-29.32-20.54-41.2-50.91h-11.7c-5.31,0-9.66-4.35-9.66-9.66v-90.54c0-5.31,4.35-9.66,9.66-9.66Z"/>
          <path class="cls-12" d="M292.98,257.71h137.62c5.31,0,9.66,4.35,9.66,9.66v90.54c0,5.31-4.35,9.66-9.66,9.66h-96.49l-2.92,5.23s-12.68,20.12,14.69,45.68c0,0-29.32-20.54-41.2-50.91h-11.7c-5.31,0-9.66-4.35-9.66-9.66v-90.54c0-5.31,4.35-9.66,9.66-9.66Z"/>
        </g>
        <g>
          <path class="cls-13" d="M404.55,240.86c-.08-2.83-1.18-5.62-3.33-7.78-2.09-2.1-4.8-3.22-7.56-3.36v-5.27c4.16.13,8.27,1.77,11.42,4.93,3.17,3.18,4.79,7.32,4.88,11.49h-5.41ZM414.04,240.88c-.09-5.21-2.11-10.4-6.06-14.38-3.94-3.96-9.09-6.01-14.28-6.14v-5.41c6.55.15,13.03,2.72,18,7.71,5.01,5.04,7.55,11.63,7.62,18.23h-5.27ZM418.23,216.16c6.81,6.85,10.26,15.79,10.36,24.76l-5.19-.02c-.06-7.65-3-15.28-8.81-21.12-5.76-5.79-13.29-8.76-20.87-8.92v-5.19c8.91.19,17.75,3.69,24.51,10.49Z"/>
          <path class="cls-13" d="M398.19,243.24c-2.17,2.15-5.67,2.14-7.83-.02-2.15-2.17-2.14-5.67.02-7.83,2.16-2.16,5.67-2.14,7.83.02,2.16,2.17,2.15,5.67-.02,7.83Z"/>
        </g>
        <path class="cls-13" d="M173.07,219.97c.09-.13.17-.29.26-.44-.22.17-.44.34-.66.48.13-.01.27-.03.4-.05ZM180.48,207.65c-.44,2.43-.97,4.72-1.6,6.78-.56,1.85-1.17,3.48-1.83,4.9,5.65-1.29,10.73-4.05,14.84-7.85-.33-.18-.67-.35-1.02-.53-2.99-1.48-6.54-2.58-10.4-3.3ZM170.07,206.71c-2.64,0-5.2.18-7.65.51.41,2.25.91,4.37,1.49,6.29.22.73.44,1.4.67,2.03,1.58,2.46,3.33,3.82,5.04,3.82,2.13,0,4.32-2.1,6.18-5.84t0,0c.58-1.93,1.08-4.07,1.49-6.34-2.33-.29-4.75-.45-7.23-.45ZM182.16,189.15c-.03,1.62-.1,3.2-.2,4.75-.15,3.87-.5,7.6-1.02,11.06,3.86.76,7.41,1.91,10.44,3.42.83.42,1.6.85,2.32,1.31,5.04-5.45,8.25-12.63,8.62-20.54h-20.17ZM147.94,211.68c4.1,3.73,9.17,6.44,14.78,7.69-1.45-3.11-2.6-7.14-3.44-11.64-4.4.86-8.3,2.23-11.34,3.95ZM169.48,170.7c-2.37,0-4.7-.14-6.95-.4-.86,4.37-1.45,9.63-1.61,15.63h17.86c-.15-5.66-.71-11.04-1.64-15.73-2.47.32-5.04.5-7.66.5ZM161.95,204.45c2.55-.34,5.19-.53,7.9-.53s5.36.19,7.91.53c.7-4.69,1.07-9.89,1.08-15.29h-17.96c0,5.41.37,10.61,1.07,15.3ZM158.95,169.76c-4.08-.76-7.82-1.94-10.99-3.53-.64-.32-1.25-.66-1.83-1.01-5.16,5.46-8.43,12.7-8.83,20.7h19.79c.1-5.96.76-11.48,1.86-16.17ZM180.32,169.7c.1.52.2,1.05.3,1.59.92,4.45,1.44,9.43,1.53,14.64h20.17c-.41-8.12-3.78-15.46-9.07-20.95-.7.43-1.44.85-2.24,1.25-3.09,1.55-6.73,2.71-10.69,3.47ZM161.31,162.38c.96-2.85,2.1-5.24,3.42-6.97-6.2.97-11.81,3.69-16.33,7.64,3.1,1.62,6.99,2.91,11.35,3.7.47-1.58.99-3.04,1.57-4.36ZM158.81,204.95c-.04-.22-.07-.44-.1-.66-.95-4.47-1.53-9.61-1.62-15.14h-19.79c.38,7.93,3.59,15.13,8.65,20.58.74-.47,1.53-.92,2.39-1.34,3.03-1.52,6.6-2.67,10.48-3.43ZM179.69,166.79c4.07-.71,7.81-1.85,10.94-3.39.21-.11.41-.21.61-.32-4.49-3.93-10.06-6.65-16.21-7.64,1.46,1.92,2.76,4.71,3.85,8.33.29.96.56,1.97.81,3.02ZM169.83,167.64c2.28,0,4.51-.14,6.67-.39-.22-.88-.45-1.73-.69-2.55-1.37-4.54-2.89-7.11-4.21-8.3-.66-.38-1.31-.57-1.98-.57-.34,0-.67.06-1.01.16-1.86,1.25-3.89,5.17-5.4,11.28,2.13.25,4.35.38,6.62.38Z"/>
        <g>
          <path class="cls-13" d="M275.23,130.13l27.76-15.47-27.72-15.69c-.39.28-.65.7-.65,1.18l-.1,28.75c0,.5.28.95.7,1.23Z"/>
          <path class="cls-13" d="M331,98.93c-.3-.2-.68-.34-1.11-.34l-52.63-.18c-.42,0-.81.13-1.11.33l27.38,14.65,27.47-14.47Z"/>
          <path class="cls-13" d="M331.75,130.37c.43-.28.71-.72.72-1.23l.1-28.85c0-.48-.25-.9-.64-1.19l-27.92,15.56,27.74,15.71Z"/>
          <path class="cls-13" d="M274.82,130.61c.3.2.68.33,1.09.33l55.12.18c.41,0,.79-.12,1.09-.32l-28.6-16.19-28.71,16Z"/>
        </g>
        <g>
          <path class="cls-13" d="M556.85,282.6c0-13.27-17.82-24.02-39.8-24.02s-39.8,10.76-39.8,24.02c0,9.98,10.07,18.53,24.41,22.16l-6.59,7.99,17.03-3.62,17.03-3.62-.02-.03c16.08-3.09,27.73-12.17,27.73-22.9ZM496.21,289.62c-3.79,0-6.86-3.07-6.86-6.86s3.07-6.86,6.86-6.86c2.56,0,4.77,1.42,5.95,3.5.56.79.89,1.74.89,2.78,0,.07-.02.13-.02.19,0,.13.04.25.04.38,0,3.79-3.07,6.86-6.86,6.86ZM515.69,289.62c-3.79,0-6.86-3.07-6.86-6.86s3.07-6.86,6.86-6.86,6.86,3.07,6.86,6.86-3.07,6.86-6.86,6.86ZM535.32,289.62c-3.79,0-6.86-3.07-6.86-6.86s3.07-6.86,6.86-6.86,6.86,3.07,6.86,6.86-3.07,6.86-6.86,6.86Z"/>
          <path class="cls-13" d="M553.26,317.53h0s6.45,1.38,6.45,1.38l6.45,1.37-2.5-3.03c5.43-1.38,9.25-4.62,9.25-8.4,0-5.03-6.75-9.1-15.08-9.1s-15.08,4.07-15.08,9.1c0,4.06,4.41,7.51,10.51,8.67ZM563.12,308.92s.01-.1.01-.14c0-.03,0-.05,0-.07,0-.39.13-.75.34-1.05.44-.79,1.28-1.33,2.25-1.33,1.43,0,2.6,1.16,2.6,2.6s-1.16,2.6-2.6,2.6-2.6-1.16-2.6-2.6ZM555.75,308.92c0-1.43,1.16-2.6,2.6-2.6s2.6,1.16,2.6,2.6-1.16,2.6-2.6,2.6-2.6-1.16-2.6-2.6ZM548.31,308.92c0-1.43,1.16-2.6,2.6-2.6s2.6,1.16,2.6,2.6-1.16,2.6-2.6,2.6-2.6-1.16-2.6-2.6Z"/>
        </g>
        <g>
          <path class="cls-13" d="M217.78,280.94l-9.02,8.94h10.78v28c0,.89.72,1.61,1.62,1.61h11.29c.89,0,1.61-.72,1.61-1.61v-28h10.78l-9.02-8.94-9.02-8.94-9.02,8.94Z"/>
          <path class="cls-13" d="M249.95,317.79h-3.51c-.73,0-1.32.59-1.32,1.32v8.58h-36.63v-8.58c0-.73-.59-1.32-1.32-1.32h-3.51c-.73,0-1.32.59-1.32,1.32v13.74c0,.24.16.46.4.63.24.23.56.37.92.37h46.3c.36,0,.68-.14.92-.38.25-.17.4-.39.4-.62v-13.74c0-.73-.59-1.32-1.32-1.32Z"/>
        </g>
        <g>
          <path class="cls-13" d="M606.13,169.85l9.02-8.94h-10.79v-28.02c0-.89-.72-1.61-1.61-1.61h-11.3c-.89,0-1.61.72-1.61,1.61v28.02h-10.79l9.02,8.94,9.03,8.94,9.02-8.94Z"/>
          <path class="cls-13" d="M620.27,177.09h-3.51c-.73,0-1.32.59-1.32,1.32v8.59h-36.65v-8.59c0-.73-.59-1.32-1.32-1.32h-3.52c-.73,0-1.32.59-1.32,1.32v13.75c0,.24.15.45.4.63.24.23.56.37.92.37h46.33c.36,0,.68-.14.92-.38.25-.17.4-.39.4-.62v-13.75c0-.73-.59-1.32-1.32-1.32Z"/>
        </g>
        <path class="cls-13" d="M379.09,313.4c0,12.24-9.96,22.2-22.2,22.2s-22.2-9.96-22.2-22.2,9.96-22.2,22.2-22.2c3.37,0,6.56.77,9.42,2.12l-3.95,3.45,18.25,6.22-3.73-18.91-4.05,3.54c-4.63-2.88-10.1-4.54-15.94-4.54-16.72,0-30.32,13.6-30.32,30.32s13.6,30.32,30.32,30.32,30.32-13.6,30.32-30.32h-8.12Z"/>
        <polygon class="cls-13" points="472.79 78.11 472.79 66.36 465.37 66.36 465.37 70.73 455.5 60.91 422.5 93.63 433.27 93.63 438.2 88.69 438.2 110.82 450.44 110.83 450.44 95.28 460.47 95.28 460.47 110.84 472.71 110.85 472.71 88.73 477.65 93.66 488.42 93.66 472.79 78.11"/>
        <g>
          <path class="cls-13" d="M500.38,175.38c0-2.47-2.94-4.47-6.56-4.47h-9.19c-.28,0-.56.01-.83.04-.24-.04-.48-.06-.73-.06h-7.67l5.04-8.23c1.77-2.89,1.39-6.34-.85-7.71-2.24-1.37-5.49-.14-7.25,2.75l-9.52,15.55c-.89,1.45-1.23,3.05-1.07,4.46-.04.36-.06.74-.06,1.12v16.44c0,4.39,2.69,7.94,6.01,7.94h19.72c2.74,0,4.96-2.19,4.96-4.89,0-.81-.2-1.57-.55-2.24,2.23-.26,3.95-2.14,3.95-4.44,0-1.54-.78-2.9-1.97-3.71,2.22-.26,3.95-2.14,3.95-4.44,0-1.62-.86-3.03-2.14-3.82,2.75-.53,4.77-2.25,4.77-4.3Z"/>
          <path class="cls-13" d="M458.9,196.18c0,2.23-1.81,4.05-4.05,4.05h0c-2.24,0-4.05-1.81-4.05-4.05v-16.63c0-2.24,1.81-4.05,4.05-4.05h0c2.24,0,4.05,1.81,4.05,4.05v16.63Z"/>
        </g>
        <g>
          <g>
            <path class="cls-13" d="M206.32,65.61c-7.47-3.35-16.28,0-19.64,7.46-3.36,7.46-.02,16.26,7.45,19.63,3.62,1.62,7.65,1.75,11.35.34,0,0,0,0,.01,0,3.7-1.41,6.64-4.17,8.26-7.79,1.68-3.74,1.69-7.81.34-11.36-1.35-3.55-4.05-6.59-7.78-8.28ZM203.27,87.16c-4.42,1.68-9.37-.55-11.05-4.97-1.68-4.42.56-9.37,4.97-11.04,4.42-1.68,9.37.55,11.04,4.97,1.68,4.42-.55,9.37-4.97,11.04Z"/>
            <path class="cls-13" d="M225.29,76.12c-3.01.86-6.23-.71-7.36-3.69-1.13-2.99.24-6.29,3.07-7.65-1.46-2.11-3.21-3.96-5.18-5.5-1.52,2.74-4.91,3.9-7.82,2.6-2.91-1.31-4.28-4.62-3.24-7.57-2.46-.45-5-.54-7.55-.23.86,3.01-.71,6.23-3.69,7.36-2.98,1.13-6.29-.24-7.64-3.06-2.12,1.46-3.96,3.21-5.51,5.18,2.74,1.51,3.9,4.9,2.6,7.81-1.31,2.91-4.62,4.28-7.57,3.24-.45,2.46-.53,5.01-.22,7.55,3.01-.86,6.22.71,7.35,3.69,1.13,2.98-.23,6.29-3.06,7.64,1.46,2.11,3.21,3.96,5.18,5.5,1.51-2.74,4.91-3.91,7.81-2.6,2.91,1.31,4.28,4.62,3.24,7.57,2.47.45,5.01.54,7.55.23-.86-3.01.71-6.23,3.69-7.36,2.98-1.12,6.29.24,7.64,3.07,2.12-1.46,3.96-3.21,5.51-5.18-2.74-1.52-3.91-4.9-2.6-7.81,1.31-2.91,4.62-4.28,7.57-3.24.45-2.46.53-5,.22-7.56ZM214.42,85.53c-1.7,3.79-4.78,6.69-8.67,8.16-3.88,1.47-8.11,1.35-11.9-.36-7.83-3.53-11.33-12.75-7.81-20.57,3.52-7.83,12.76-11.33,20.58-7.81,7.82,3.52,11.32,12.75,7.8,20.58Z"/>
          </g>
          <g>
            <path class="cls-13" d="M234.08,93.93c-3.39-1.52-7.39,0-8.91,3.38-1.53,3.39,0,7.38,3.38,8.91,1.64.74,3.47.79,5.15.16,0,0,0,0,0,0,1.68-.64,3.01-1.89,3.75-3.53.76-1.7.77-3.54.15-5.16-.61-1.61-1.84-2.99-3.53-3.76ZM232.7,103.72c-2.01.76-4.25-.25-5.02-2.26-.76-2.01.25-4.25,2.26-5.01,2.01-.76,4.25.25,5.01,2.25.76,2.01-.25,4.25-2.26,5.01Z"/>
            <path class="cls-13" d="M242.69,98.71c-1.37.39-2.83-.32-3.34-1.67-.51-1.36.11-2.86,1.39-3.47-.66-.96-1.46-1.8-2.35-2.5-.69,1.24-2.23,1.77-3.55,1.18-1.32-.59-1.94-2.1-1.47-3.44-1.11-.21-2.27-.24-3.43-.1.39,1.37-.32,2.83-1.68,3.34-1.35.51-2.85-.11-3.47-1.39-.96.66-1.8,1.46-2.5,2.35,1.24.69,1.77,2.23,1.18,3.55-.59,1.32-2.1,1.94-3.44,1.47-.2,1.12-.24,2.27-.1,3.43,1.37-.39,2.83.32,3.34,1.68.51,1.35-.11,2.86-1.39,3.47.66.96,1.46,1.8,2.35,2.5.69-1.24,2.23-1.77,3.55-1.18,1.32.59,1.94,2.1,1.47,3.44,1.12.2,2.27.24,3.43.1-.39-1.37.32-2.83,1.68-3.34,1.35-.51,2.86.11,3.47,1.39.96-.66,1.8-1.46,2.5-2.35-1.24-.69-1.77-2.23-1.18-3.55.59-1.32,2.1-1.94,3.44-1.47.2-1.12.24-2.27.1-3.43ZM237.76,102.98c-.77,1.72-2.17,3.04-3.94,3.71-1.76.67-3.68.61-5.4-.16-3.55-1.6-5.14-5.79-3.55-9.34,1.6-3.55,5.79-5.14,9.34-3.55,3.55,1.6,5.14,5.79,3.54,9.34Z"/>
          </g>
        </g>
        <g>
          <g>
            <path class="cls-13" d="M290.34,219.12c10.38,0,18.8,8.42,18.8,18.8h-37.6c0-10.38,8.42-18.8,18.8-18.8Z"/>
            <path class="cls-13" d="M281.05,207.4c0,5.13,4.16,9.29,9.29,9.29s9.29-4.16,9.29-9.29-4.16-9.29-9.29-9.29-9.29,4.16-9.29,9.29Z"/>
          </g>
          <g>
            <path class="cls-13" d="M310.49,223.88c7.76,0,14.05,6.29,14.05,14.05h-28.09c0-7.76,6.29-14.05,14.05-14.05Z"/>
            <path class="cls-13" d="M303.55,215.12c0,3.83,3.11,6.94,6.94,6.94s6.94-3.11,6.94-6.94-3.11-6.94-6.94-6.94-6.94,3.11-6.94,6.94Z"/>
          </g>
        </g>
        <g>
          <rect class="cls-1" x="288.48" y="43.35" width="59.62" height="2.95"/>
          <path class="cls-5" d="M294.33,44.82c0,3.23-2.62,5.85-5.85,5.85s-5.85-2.62-5.85-5.85,2.62-5.85,5.85-5.85,5.85,2.62,5.85,5.85Z"/>
          <path class="cls-5" d="M353.94,44.82c0,3.23-2.62,5.85-5.85,5.85s-5.85-2.62-5.85-5.85,2.62-5.85,5.85-5.85,5.85,2.62,5.85,5.85Z"/>
        </g>
        <g class="cls-2">
          <rect class="cls-7" x="691.44" y="137.33" width="2.95" height="59.62"/>
          <path class="cls-7" d="M692.92,143.17c-3.23,0-5.85-2.62-5.85-5.85s2.62-5.85,5.85-5.85,5.85,2.62,5.85,5.85-2.62,5.85-5.85,5.85Z"/>
          <path class="cls-7" d="M692.92,202.79c-3.23,0-5.85-2.62-5.85-5.85s2.62-5.85,5.85-5.85,5.85,2.62,5.85,5.85-2.62,5.85-5.85,5.85Z"/>
        </g>
        <path class="cls-4" d="M11.93,181.75c0,3.29-2.67,5.96-5.96,5.96s-5.96-2.67-5.96-5.96,2.67-5.96,5.96-5.96,5.96,2.67,5.96,5.96Z"/>
        <path class="cls-4" d="M31.59,181.75c0,3.29-2.67,5.96-5.96,5.96s-5.96-2.67-5.96-5.96,2.67-5.96,5.96-5.96,5.96,2.67,5.96,5.96Z"/>
        <path class="cls-4" d="M51.26,181.75c0,3.29-2.67,5.96-5.96,5.96s-5.96-2.67-5.96-5.96,2.67-5.96,5.96-5.96,5.96,2.67,5.96,5.96Z"/>
        <g class="cls-2">
          <g>
            <polygon class="cls-15" points="96.71 362.09 86.81 362.09 91.76 353.51 96.71 344.94 101.66 353.51 106.61 362.09 96.71 362.09"/>
            <polygon class="cls-15" points="96.71 342.42 86.81 342.42 91.76 333.84 96.71 325.27 101.66 333.84 106.61 342.42 96.71 342.42"/>
            <polygon class="cls-15" points="96.71 322.75 86.81 322.75 91.76 314.18 96.71 305.6 101.66 314.18 106.61 322.75 96.71 322.75"/>
          </g>
        </g>
        <g class="cls-2">
          <polygon class="cls-8" points="642.52 358.69 639.37 355.54 649.97 344.94 639.37 334.33 642.52 331.18 656.28 344.94 642.52 358.69"/>
          <polygon class="cls-8" points="654.68 358.69 651.53 355.54 662.13 344.94 651.53 334.34 654.68 331.18 668.43 344.94 654.68 358.69"/>
          <polygon class="cls-8" points="666.83 358.69 663.69 355.54 674.29 344.94 663.68 334.33 666.83 331.18 680.59 344.94 666.83 358.69"/>
          <polygon class="cls-8" points="679 358.69 675.84 355.54 686.45 344.94 675.84 334.34 679 331.18 692.75 344.94 679 358.69"/>
        </g>
        <g class="cls-2">
          <g>
            <rect class="cls-12" x="540.84" y="380.68" width="1.35" height="15.01"/>
            <rect class="cls-12" x="518.32" y="380.68" width="1.35" height="15.01"/>
            <rect class="cls-12" x="536.33" y="386.69" width="1.35" height="9.01"/>
            <rect class="cls-12" x="531.83" y="386.69" width="1.35" height="9.01"/>
            <rect class="cls-12" x="527.33" y="386.69" width="1.35" height="9.01"/>
            <rect class="cls-12" x="522.83" y="386.69" width="1.35" height="9.01"/>
            <rect class="cls-12" x="540.84" y="380.68" width="1.35" height="15.01"/>
            <rect class="cls-12" x="536.33" y="386.69" width="1.35" height="9.01"/>
            <rect class="cls-12" x="531.83" y="386.69" width="1.35" height="9.01"/>
            <rect class="cls-12" x="527.33" y="386.69" width="1.35" height="9.01"/>
            <rect class="cls-12" x="522.83" y="386.69" width="1.35" height="9.01"/>
            <rect class="cls-12" x="495.81" y="380.68" width="1.35" height="15.01"/>
            <rect class="cls-12" x="513.82" y="386.69" width="1.35" height="9.01"/>
            <rect class="cls-12" x="509.32" y="386.69" width="1.35" height="9.01"/>
            <rect class="cls-12" x="504.81" y="386.69" width="1.35" height="9.01"/>
            <rect class="cls-12" x="500.31" y="386.69" width="1.35" height="9.01"/>
            <rect class="cls-12" x="513.82" y="386.69" width="1.35" height="9.01"/>
            <rect class="cls-12" x="509.32" y="386.69" width="1.35" height="9.01"/>
            <rect class="cls-12" x="504.81" y="386.69" width="1.35" height="9.01"/>
            <rect class="cls-12" x="500.31" y="386.69" width="1.35" height="9.01"/>
            <rect class="cls-12" x="477.8" y="380.68" width="1.35" height="15.01"/>
            <rect class="cls-12" x="495.81" y="386.69" width="1.35" height="9.01"/>
            <rect class="cls-12" x="491.31" y="386.69" width="1.35" height="9.01"/>
            <rect class="cls-12" x="486.8" y="386.69" width="1.35" height="9.01"/>
            <rect class="cls-12" x="482.3" y="386.69" width="1.35" height="9.01"/>
            <rect class="cls-12" x="491.31" y="386.69" width="1.35" height="9.01"/>
            <rect class="cls-12" x="486.8" y="386.69" width="1.35" height="9.01"/>
            <rect class="cls-12" x="482.3" y="386.69" width="1.35" height="9.01"/>
            <rect class="cls-12" x="455.29" y="380.68" width="1.35" height="15.01"/>
            <rect class="cls-12" x="473.3" y="386.69" width="1.35" height="9.01"/>
            <rect class="cls-12" x="468.79" y="386.69" width="1.35" height="9.01"/>
            <rect class="cls-12" x="464.29" y="386.69" width="1.35" height="9.01"/>
            <rect class="cls-12" x="459.79" y="386.69" width="1.35" height="9.01"/>
            <rect class="cls-12" x="473.3" y="386.69" width="1.35" height="9.01"/>
            <rect class="cls-12" x="468.79" y="386.69" width="1.35" height="9.01"/>
            <rect class="cls-12" x="464.29" y="386.69" width="1.35" height="9.01"/>
            <rect class="cls-12" x="459.79" y="386.69" width="1.35" height="9.01"/>
            <rect class="cls-12" x="432.77" y="380.68" width="1.35" height="15.01"/>
            <rect class="cls-12" x="450.78" y="386.69" width="1.35" height="9.01"/>
            <rect class="cls-12" x="446.28" y="386.69" width="1.35" height="9.01"/>
            <rect class="cls-12" x="441.78" y="386.69" width="1.35" height="9.01"/>
            <rect class="cls-12" x="437.27" y="386.69" width="1.35" height="9.01"/>
            <rect class="cls-12" x="450.78" y="386.69" width="1.35" height="9.01"/>
            <rect class="cls-12" x="446.28" y="386.69" width="1.35" height="9.01"/>
            <rect class="cls-12" x="441.78" y="386.69" width="1.35" height="9.01"/>
            <rect class="cls-12" x="437.27" y="386.69" width="1.35" height="9.01"/>
            <rect class="cls-12" x="410.26" y="380.68" width="1.35" height="15.01"/>
            <rect class="cls-12" x="428.27" y="386.69" width="1.35" height="9.01"/>
            <rect class="cls-12" x="423.77" y="386.69" width="1.35" height="9.01"/>
            <rect class="cls-12" x="419.26" y="386.69" width="1.35" height="9.01"/>
            <rect class="cls-12" x="414.76" y="386.69" width="1.35" height="9.01"/>
            <rect class="cls-12" x="428.27" y="386.69" width="1.35" height="9.01"/>
            <rect class="cls-12" x="423.77" y="386.69" width="1.35" height="9.01"/>
            <rect class="cls-12" x="419.26" y="386.69" width="1.35" height="9.01"/>
            <rect class="cls-12" x="414.76" y="386.69" width="1.35" height="9.01"/>
            <rect class="cls-12" x="392.25" y="380.68" width="1.35" height="15.01"/>
            <rect class="cls-12" x="410.26" y="386.69" width="1.35" height="9.01"/>
            <rect class="cls-12" x="405.75" y="386.69" width="1.35" height="9.01"/>
            <rect class="cls-12" x="401.25" y="386.69" width="1.35" height="9.01"/>
            <rect class="cls-12" x="396.75" y="386.69" width="1.35" height="9.01"/>
            <rect class="cls-12" x="405.75" y="386.69" width="1.35" height="9.01"/>
            <rect class="cls-12" x="401.25" y="386.69" width="1.35" height="9.01"/>
            <rect class="cls-12" x="396.75" y="386.69" width="1.35" height="9.01"/>
            <rect class="cls-12" x="369.73" y="380.68" width="1.35" height="15.01"/>
            <rect class="cls-12" x="387.74" y="386.69" width="1.35" height="9.01"/>
            <rect class="cls-12" x="383.24" y="386.69" width="1.35" height="9.01"/>
            <rect class="cls-12" x="378.74" y="386.69" width="1.35" height="9.01"/>
            <rect class="cls-12" x="374.24" y="386.69" width="1.35" height="9.01"/>
            <rect class="cls-12" x="387.74" y="386.69" width="1.35" height="9.01"/>
            <rect class="cls-12" x="383.24" y="386.69" width="1.35" height="9.01"/>
            <rect class="cls-12" x="378.74" y="386.69" width="1.35" height="9.01"/>
            <rect class="cls-12" x="374.24" y="386.69" width="1.35" height="9.01"/>
          </g>
        </g>
        <g class="cls-2">
          <g>
            <polygon class="cls-3" points="611.92 52 621 52 631.48 69.81 622.4 69.81 611.92 52"/>
            <polygon class="cls-3" points="595.53 52 604.6 52 615.08 69.81 606 69.81 595.53 52"/>
            <polygon class="cls-3" points="579.13 52 588.21 52 598.68 69.81 589.6 69.81 579.13 52"/>
            <polygon class="cls-3" points="562.73 52 571.81 52 582.28 69.81 573.2 69.81 562.73 52"/>
          </g>
        </g>
        <g>
          <g class="cls-2">
            <path class="cls-6" d="M118.94,89.97h-2.95c0-.84.01-1.67.03-2.5l2.95.08c-.02.8-.03,1.61-.03,2.42Z"/>
            <path class="cls-6" d="M119.25,82.59l-2.94-.25c.14-1.7.33-3.41.57-5.09l2.92.41c-.23,1.63-.42,3.28-.55,4.93ZM120.64,72.78l-2.89-.58c.33-1.67.72-3.35,1.15-4.99l2.85.74c-.41,1.59-.79,3.22-1.11,4.83ZM123.14,63.2l-2.81-.91c.52-1.62,1.1-3.25,1.72-4.84l2.75,1.07c-.6,1.54-1.15,3.11-1.66,4.68ZM126.73,53.94l-2.68-1.22c.71-1.55,1.47-3.1,2.26-4.61l2.61,1.38c-.77,1.46-1.5,2.96-2.18,4.45ZM131.35,45.17l-2.53-1.52c.87-1.45,1.81-2.91,2.77-4.32l2.44,1.66c-.93,1.37-1.83,2.77-2.68,4.18ZM136.94,36.97l-2.34-1.8c1.04-1.35,2.13-2.69,3.24-3.97l2.23,1.93c-1.08,1.25-2.13,2.54-3.13,3.84ZM143.41,29.47l-2.12-2.05c1.18-1.22,2.42-2.43,3.67-3.58l2,2.17c-1.21,1.12-2.4,2.28-3.55,3.46ZM150.7,22.75l-1.87-2.28c1.31-1.08,2.68-2.14,4.05-3.14l1.74,2.38c-1.33.97-2.64,1.99-3.91,3.04ZM158.69,16.9l-1.6-2.48c1.43-.93,2.9-1.82,4.37-2.66l1.46,2.56c-1.43.81-2.85,1.68-4.23,2.57ZM248.29,13.92c-1.44-.8-2.92-1.57-4.4-2.29l1.29-2.65c1.53.74,3.06,1.54,4.55,2.37l-1.44,2.58ZM167.29,11.99l-1.31-2.64c1.52-.75,3.08-1.48,4.65-2.15l1.16,2.71c-1.51.65-3.02,1.35-4.49,2.08ZM239.38,9.6c-1.52-.63-3.07-1.23-4.63-1.77l.98-2.78c1.61.56,3.22,1.18,4.79,1.83l-1.13,2.72ZM176.39,8.1l-1-2.77c1.6-.58,3.24-1.12,4.87-1.6l.84,2.83c-1.58.47-3.16.99-4.71,1.55ZM230.02,6.32c-1.58-.45-3.19-.87-4.8-1.23l.65-2.88c1.66.38,3.34.8,4.97,1.27l-.81,2.84ZM185.88,5.28l-.68-2.87c1.65-.39,3.34-.74,5.02-1.03l.51,2.9c-1.62.29-3.26.62-4.85,1ZM220.35,4.13c-1.62-.27-3.28-.5-4.91-.67l.32-2.93c1.69.18,3.4.42,5.08.7l-.48,2.91ZM195.64,3.56l-.35-2.93c1.69-.2,3.41-.35,5.1-.46l.18,2.94c-1.64.1-3.3.25-4.94.44ZM210.49,3.07c-1.5-.08-3.03-.12-4.53-.12h-.43s0-2.95,0-2.95h.44c1.55,0,3.13.04,4.68.12l-.15,2.95Z"/>
            <path class="cls-6" d="M254.61,17.81c-.67-.45-1.34-.89-2.02-1.32l1.58-2.49c.7.45,1.4.9,2.09,1.37l-1.65,2.44Z"/>
          </g>
          <circle class="cls-6" cx="116.98" cy="90.95" r="5.76"/>
          <circle class="cls-6" cx="256.26" cy="17.81" r="5.76"/>
        </g>
      </g>
    </g>
  </g>
</svg>